# xmcd
#
# Track frame offsets: 
#        150
#        30771
#        45652
#        72305
#        104902
#        122216
#        140414
#        165240
#        182997
#        206436
#        221440
#
# Disc length: 3552 seconds
#
# Revision: 0
# Processed by: cddbd v1.5.2PL0 Copyright (c) Steve Scherf et al.
# Submitted via: ExactAudioCopy v1.3
#
DISCID=9c0dde0b
DTITLE=Catfish - Burning Bridges
DYEAR=2019
DGENRE=Blues
TTITLE0=Up in Smoke
TTITLE1=Break Me Down
TTITLE2=Ghosts
TTITLE3=The Root of All Evil
TTITLE4=Soulbreaker
TTITLE5=Too Far to Fall
TTITLE6=Archangel
TTITLE7=The Big Picture
TTITLE8=Under the Gun
TTITLE9=One More Chance
TTITLE10=Exile
EXTD=
EXTT0=
EXTT1=
EXTT2=
EXTT3=
EXTT4=
EXTT5=
EXTT6=
EXTT7=
EXTT8=
EXTT9=
EXTT10=
PLAYORDER=
